<?xml version="1.0" encoding="utf-8"?>
<!-- Generator: Adobe Illustrator 19.0.0, SVG Export Plug-In . SVG Version: 6.00 Build 0)  -->
<svg version="1.1" id="layer" xmlns="http://www.w3.org/2000/svg" xmlns:xlink="http://www.w3.org/1999/xlink" x="0px" y="0px"
	 viewBox="-153 -46 652 652" style="enable-background:new -153 -46 652 652;" xml:space="preserve">
<style type="text/css">
	.st0{fill:#9FA0A0;}
	.st1{fill-rule:evenodd;clip-rule:evenodd;fill:#C70F28;}
	.st2{fill:#C70F28;}
</style>
<g>
	<path class="st0" d="M-131,278.4v-0.2c0-21.7,17-39.7,40.8-39.7c14.6,0,23.4,4.9,31.4,12.2L-65,257c-6.8-6.1-14.4-10.5-25.3-10.5
		c-17.8,0-31.2,13.8-31.2,31.5v0.2c0,17.8,13.5,31.7,31.2,31.7c11.1,0,18.3-4.1,26-11.1l6,5.6c-8.4,8.1-17.6,13.5-32.2,13.5
		C-113.9,317.9-131,300.4-131,278.4"/>
</g>
<g>
	<path class="st0" d="M-40.8,288.5v-0.2c0-16,13.1-29.6,31.1-29.6c17.8,0,31,13.4,31,29.4v0.2c0,16-13.2,29.6-31.2,29.6
		C-27.8,317.9-40.8,304.5-40.8,288.5 M12.1,288.5v-0.2c0-12.2-9.6-22.2-22.1-22.2c-12.9,0-21.8,10-21.8,21.9v0.2
		c0,12.2,9.4,22,22,22C3.1,310.3,12.1,300.4,12.1,288.5"/>
	<path class="st0" d="M41.3,259.9h8.9v9.9c3.9-6.1,10.1-11.1,20.4-11.1c14.4,0,22.8,9.2,22.8,22.7v35.2h-8.9v-33.1
		c0-10.5-6-17.1-16.5-17.1c-10.2,0-17.8,7.1-17.8,17.8v32.5h-8.9V259.9"/>
	<path class="st0" d="M121.9,301.5v-34.2h-8.3v-7.5h8.3v-17.1h8.9v17.1h18.9v7.5h-18.9v33.1c0,6.9,4,9.4,10,9.4c3,0,5.5-0.6,8.6-2
		v7.2c-3.1,1.5-6.4,2.4-10.7,2.4C129.1,317.5,121.9,313,121.9,301.5"/>
	<path class="st0" d="M169.4,259.9h8.9v14.8c4.4-9.4,13-16.2,24.3-15.8v9.1h-0.7c-13,0-23.6,8.9-23.6,26v22.6h-8.9V259.9"/>
	<path class="st0" d="M213.9,288.5v-0.2c0-16,13.1-29.6,31.1-29.6c17.8,0,31,13.4,31,29.4v0.2c0,16-13.2,29.6-31.2,29.6
		C226.9,317.9,213.9,304.5,213.9,288.5 M266.9,288.5v-0.2c0-12.2-9.6-22.2-22.1-22.2c-12.9,0-21.8,10-21.8,21.9v0.2
		c0,12.2,9.4,22,22,22C257.9,310.3,266.9,300.4,266.9,288.5"/>
	<rect x="296.9" y="236.5" class="st0" width="8.9" height="80.1"/>
</g>
<g>
	<polygon class="st1" points="369.6,294 413.5,294 413.5,321.3 426.9,321.3 426.9,282.7 384.8,282.8 420.5,233.4 403.8,233.4 
		366.5,285.2 	"/>
	<path class="st1" d="M416.1,338.9c-5.4,0.9-8.9,1.2-13.6,1.2c-33.9,0-61.3-27.5-61.3-61.4c0-33.9,27.5-61.4,61.3-61.4
		c27.9,0,51.4,18.6,58.9,44.1c-3.9-17.2-14.6-32.8-30.9-42.3c-31.3-18.3-71.7-7.7-90.1,23.6c-18.3,31.3-7.7,71.7,23.5,90.1
		C380.3,342.3,399.3,343.9,416.1,338.9"/>
</g>
<g>
	<path class="st2" d="M456.5,228.8L456.5,228.8c0-3.4,2.8-6.3,6.3-6.3c3.5,0,6.3,2.8,6.3,6.3v0c0,3.4-2.8,6.3-6.3,6.3
		C459.2,235.1,456.5,232.2,456.5,228.8 M468.3,228.8L468.3,228.8c0-3.1-2.4-5.6-5.5-5.6c-3.1,0-5.5,2.6-5.5,5.6v0
		c0,3.1,2.4,5.6,5.5,5.6C465.9,234.4,468.3,231.8,468.3,228.8 M460.4,225.5h2.8c1.3,0,2.3,0.7,2.3,1.9c0,1-0.7,1.7-1.5,1.9l1.8,2.4
		h-1.3l-1.6-2.3h-1.5v2.3h-1V225.5z M463.1,228.7c0.9,0,1.4-0.5,1.4-1.2c0-0.8-0.5-1.1-1.4-1.1h-1.7v2.3H463.1z"/>
</g>
</svg>
